<svg xmlns="http://www.w3.org/2000/svg" viewBox="0 0 960 388" width="960" height="388" role="img" aria-labelledby="t d">
<title id="t">The OpenClaw Gateway runs on 127.0.0.1:18789 on the Ubuntu guest with no hostname of its own in this chapter, and connects out to Google AI Studio for Gemini Flash. Only the Hello World page from Start here is published.</title>
<desc id="d">The OpenClaw Gateway runs on 127.0.0.1:18789 on the Ubuntu guest with no hostname of its own in this chapter, and connects out to Google AI Studio for Gemini Flash. Only the Hello World page from Start here is published.</desc>
<style>.label{font-family:Jost,system-ui,sans-serif;font-size:15px;fill:#000033}.small{font-family:Jost,system-ui,sans-serif;font-size:13px;fill:#4a4f66}.mono{font-family:Iosevka,ui-monospace,monospace;font-size:13px;fill:#000033}.monoxs{font-family:Iosevka,ui-monospace,monospace;font-size:12px;fill:#4a4f66}.head{font-family:Jost,system-ui,sans-serif;font-size:13px;font-weight:600;fill:#ffffff;letter-spacing:.04em}.card{fill:#ffffff;stroke:#c9cdd8;stroke-width:1.5}</style>
<rect x="0" y="0" width="960" height="388" rx="10" fill="#f4f5f7"/>
<rect class="card" x="36" y="80" width="112" height="120" rx="8"/>
<text class="label" x="92" y="126" text-anchor="middle">Phone</text>
<text class="small" x="92" y="146" text-anchor="middle">cellular</text>
<text class="small" x="92" y="164" text-anchor="middle">Wi-Fi off</text>
<rect class="card" x="250" y="111" width="250" height="58" rx="8"/>
<rect x="250" y="111" width="6" height="58" rx="3" fill="#2f6fb0"/>
<text class="mono" x="272" y="137">hello-world.&lt;org&gt;.edgible.com</text>
<text class="small" x="272" y="157">open to anyone</text>
<text class="small" x="486" y="157" text-anchor="end">Start here</text>
<path d="M148 140 C 200 140, 200 140, 250 140" fill="none" stroke="#2f6fb0" stroke-width="2"/>
<rect class="card" x="612" y="40" width="340" height="200" rx="8"/>
<path d="M620 40 h324 a8 8 0 0 1 8 8 v22 h-340 v-22 a8 8 0 0 1 8 -8 z" fill="#2e4a9e"/>
<text class="head" x="632" y="60">UBUNTU GUEST</text>
<text class="monoxs" x="632" y="100">127.0.0.1:18789</text>
<text class="monoxs" x="758" y="100">OpenClaw Gateway</text>
<text class="monoxs" x="632" y="126">127.0.0.1:8081</text>
<text class="monoxs" x="758" y="126">nginx, still public</text>
<line x1="632" y1="140" x2="932" y2="140" stroke="#e0e3ea" stroke-width="1.5"/>
<text class="small" x="632" y="158">no hostname for the Gateway in this chapter</text>
<text class="small" x="632" y="184">router: 18789 not forwarded</text>
<path d="M612 140 H512" fill="none" stroke="#000033" stroke-width="2.5"/>
<text class="small" x="556" y="130" text-anchor="middle">outbound 443</text>
<rect class="card" x="250" y="284" width="370" height="64" rx="8"/>
<text class="label" x="270" y="310">Google AI Studio</text>
<text class="small" x="270" y="332">Gemini Flash answers the prompts</text>
<path d="M652 240 V316 H620" fill="none" stroke="#000033" stroke-width="2"/>
<text class="small" x="664" y="306">the Gateway connects out</text>
</svg>
